<?xml version="1.0" encoding="utf-8"?>
<!-- Generator: Adobe Illustrator 23.0.3, SVG Export Plug-In . SVG Version: 6.00 Build 0)  -->
<svg version="1.1" id="Layer_1" xmlns="http://www.w3.org/2000/svg" xmlns:xlink="http://www.w3.org/1999/xlink" x="0px" y="0px"
	 viewBox="0 0 512 512" style="enable-background:new 0 0 512 512;" xml:space="preserve">
<style type="text/css">
	.st0{fill-rule:evenodd;clip-rule:evenodd;fill:#00AC8D;}
	.st1{fill-rule:evenodd;clip-rule:evenodd;fill:#00A97A;}
	.st2{fill:#FFFFFF;}
</style>
<g>
	<path class="st0" d="M256.6,6.7C119,6.7,7.4,118.2,7.4,255.8c0,137.6,111.5,249.1,249.1,249.1c137.6,0,249.1-111.5,249.1-249.1
		C505.7,118.2,394.1,6.7,256.6,6.7"/>
	<path class="st1" d="M340.2,490.5c79-28.2,139.7-95.1,159-178l-134.8-86.3l-12.9-36.7l-61,4.4l-25.6,55.7l-38-48.6l-83.5-4.8
		l-28,150.2L340.2,490.5z"/>
	<path class="st2" d="M224.4,260.8L224.4,260.8c0-7.6-1-14.4-3-20.6c-2-6.2-4.9-11.5-8.8-16c-3.9-4.5-8.6-8-14.2-10.4
		c-5.6-2.4-12-3.6-19.1-3.6h-24.4v101.8h24.4c7.2,0,13.7-1.3,19.3-3.9c5.6-2.6,10.3-6.2,14.1-10.7c3.8-4.6,6.7-10,8.7-16.2
		C223.4,275,224.4,268.2,224.4,260.8 M299.8,256.9L299.8,256.9H336c4.7,0,8.7-2.2,12.1-6.6c3.4-4.4,5.1-10.1,5.1-17
		c0-7.1-1.9-12.7-5.8-16.9c-3.9-4.2-8-6.3-12.5-6.3h-35V256.9z M115.4,346.7V175.4h63.9c14.1,0,26.5,2.3,37.1,6.8
		c10.6,4.5,19.5,10.6,26.7,18.3c7.2,7.7,12.5,16.8,16.2,27.1c0.3,1,0.7,2,1,2.9v-55.2h77.2c8,0,15.5,1.7,22.3,5.1
		c6.8,3.4,12.7,7.8,17.7,13.3c5,5.5,8.9,11.7,11.7,18.6c2.8,6.9,4.2,13.9,4.2,21c0,5.3-0.6,10.4-1.9,15.3c-1.3,4.9-3.1,9.5-5.5,13.9
		c-2.4,4.3-5.3,8.2-8.8,11.7c-3.5,3.5-7.4,6.4-11.7,8.8l39.3,63.7h-44.6l-34.5-55.2h-25.8v55.2h-39.6v-55.1c-0.5,1.5-1,3-1.6,4.5
		c-4,10.5-9.8,19.5-17.2,27c-7.5,7.5-16.5,13.3-27,17.4c-10.5,4.1-22.2,6.2-35.1,6.2H115.4z"/>
</g>
</svg>
