<?xml version="1.0" encoding="utf-8"?>
<!-- Generator: Adobe Illustrator 23.0.3, SVG Export Plug-In . SVG Version: 6.00 Build 0)  -->
<svg version="1.1" id="Layer_1" xmlns="http://www.w3.org/2000/svg" xmlns:xlink="http://www.w3.org/1999/xlink" x="0px" y="0px"
	 viewBox="0 0 446.8 247.9" style="enable-background:new 0 0 446.8 247.9;" xml:space="preserve">
<g>
	<g>
		<path d="M375.3,12.8c-1.2,1.4-2.2,3-3.5,4.2c-13,11.5-24.8,24.2-36.5,37.1c-6.6,7.3-12.7,15.2-19,22.9
			c-5.2,6.4-10.1,12.9-15.3,19.3c-1.1,1.4-1.8,2.5,0,3.9c0.4,0.3,0.8,0.9,0.9,1.4c0.3,2,1.4,1.6,2.7,1.3c4.7-1.1,9.3-2.4,14-3.2
			c5.6-0.9,11.4-1.3,17-1.9c0.4,0,0.9,0.1,1.2-0.1c3.2-2.2,6.5-0.2,9.6,0.1c1.4,0.2,2.9,1.6,3.9,2.9c1.1,1.5,2.2,2.1,3.8,2
			c4.5-0.3,9-0.6,13.5-0.8c2.5-0.1,5-0.3,7.4,0c1.9,0.2,4.3,0.3,4.2,3.6c0,0.6,1.1,1.5,1.9,1.9c2.6,1.6,5.3,3.1,7.9,4.7
			c1.4,0.9,1.3,2.1-0.2,2.9c-0.6,0.3-1.3,0.6-1.9,0.6c-4.4,0.3-8.7,0.7-13.1,0.9c-11.1,0.6-22.1,1.2-33.2,1.8
			c-0.8,0-1.7,0.2-2.4,0.5c-3.1,1.5-6.1,3.2-9,5.4c1,0.1,2.1,0.2,3.1,0.1c4.2-0.5,8.4-1,12.6-1.5c1.1-0.1,2.2-0.1,3.3-0.2
			c4.9-0.5,9.8-1,14.7-1.5c0.7-0.1,1.4-0.2,2-0.2c8-0.6,16.1-0.8,24.1-1.9c15.2-2.2,30.4-1.6,45.6-1.5c3.5,0,7,1.2,10.4,2.1
			c0.8,0.2,1.6,1.5,1.8,2.4c0.1,0.6-1,1.7-1.8,2c-1.1,0.4-2.4,0.3-3.6,0.3c-1.7,0-3.5-0.1-5.2,0c-2,0.1-2.6-0.2-4.7-2.7
			c-0.3-0.4-1.2-0.7-1.6-0.5c-4,1.7-8.7,1-12.5,3.4c-0.8,0.5-1.7,1-2.6,1.2c-1.3,0.3-3.6,0.6-3.7,0.2c-0.7-2.1,1.7-1.6,2.4-2.6
			c0.1-0.2,0.2-0.5,0.4-0.8c-4.3-1.5-8.7-0.4-13-0.2c-5.6,0.4-11.2,0.7-16.8,1.2c-3.5,0.3-7,0.9-10.6,1.3c-0.9,0.1-1.9,0.3-2.9,0.4
			c-5.7,0.6-11.4,1.1-17.1,1.6c-3.9,0.4-7.9,0.6-11.9,1c-3.1,0.3-6.3,0.7-9.4,0.9c-7,0.6-13.9,1.1-20.9,1.7c-5,0.4-10.1,1-15.1,1.5
			c-2.6,0.3-5.2,0.3-7.7,0.8c-3.2,0.7-3.5,1.6-2.5,4.8c1.1,3.3,2.1,6.6,3.1,9.9c1.6,5.8-0.1,11-3.5,15.4
			c-6.5,8.3-14.5,14.5-24.4,17.6c-1.3,0.4-2.5,1.1-3.8,1.6c-3.4,1.3-3.9,1.8-3.3,5.8c0.8,5.4,1.9,10.8,2.8,16.2
			c0.2,0.9,0.5,1.7,0.5,2.5c0.1,2-0.7,3.3-2.5,3.1c-4.6-0.4-9.2,1.3-13.9,0.2c-2-0.4-4.1-0.2-6.2-0.1c-7.6,0.2-15-1.4-22.4-2.3
			c-5-0.6-10.1-1-15.1-1.5c-5.2-0.5-10.3-1.1-15.4-1.8c-6-0.7-11.9-1.5-17.9-2.3c-5.2-0.6-10.3-1.5-15.5-1.7
			c-11.2-0.4-22.2-2.9-33.3-4.5c-1.2-0.2-2.4-0.5-3.6-0.9c-1.4-0.5-2.5-1.4-2.4-3.1c0-1.3,1.8-2.7,3.4-2.5c1.8,0.2,3.6,0.4,5.3,0.9
			c5.4,1.8,11,2.3,16.6,2.2c1.4,0,2.7-0.3,4.1-0.3c0.5,0,1.5,0.5,1.5,0.7c-0.2,2.3,1.4,2.1,2.7,2.2c7.3,0.8,14.7,1.7,22,2.5
			c8.1,0.9,16.3,1.8,24.4,2.7c9.4,1.1,18.7,2.2,28.1,3.3c7.2,0.9,14.4,2,21.6,2.5c3.6,0.3,7.4-0.4,11-0.8c2-0.2,1.8-1.9,1.6-3.3
			c-0.6-3.4-1.2-6.8-1.8-10.2c-0.3-1.6-0.5-3.2-0.5-4.7c0-1.9-0.9-2.6-2.6-2.5c-0.8,0-1.6,0-2.5,0c-5.6-0.2-8.7-5.4-6.7-11
			c2.1-5.6,5-10.6,8.8-15.1c5.2-6.1,10.4-12.3,16.7-17.2c1.5-1.1,2.4-3.1,3.5-4.8c0.6-1,0.1-1.7-0.9-1.7c-1.9,0-3.8,0.1-5.7,0.3
			c-5.6,0.5-11.2,1-16.7,1.6c-5.7,0.6-11.5,0.8-17.1,2.1c-4.9,1.2-9.5,3.6-14.2,5.5c-8,3.3-16,6.9-24.1,10
			c-5.6,2.1-11.3,3.2-17.3,1.9c-4.3-0.9-6.8-3.6-8.4-7.5c-0.9-2.3-2.1-2.5-3.8-1.6c-1.9,1.1-3.8,2.3-5.7,3.4
			c-3.3,1.8-6.5,3.7-9.9,5.2c-3,1.3-4.8,0.3-6.3-2.8c-1.5-3.2-2.1-3.6-5.3-3.1c-12.3,1.7-24.7,3.4-37,5.2
			c-11.2,1.7-22.4,3.7-33.6,5.7c-11.2,2-22.3,4.1-33.5,6.2c-2.6,0.5-5.1,1-7.6,1.5c-0.1,0-0.3,0.1-0.4,0.1c-5.3-1.7-11.2-0.4-16-4.3
			c-3.3-2.7-4-5.2-0.7-8.1c3.3-3,7-5.7,10.8-7.8c6.5-3.6,13.3-6.9,20.1-10c10.9-5,22-9.8,33-14.6c7.2-3.2,14.4-6.3,21.7-9.4
			c6.5-2.7,13.1-5.1,19.6-7.8c4-1.6,7.8-3.7,11.7-5.3c10-4,20-7.9,30-11.8c10.2-4,20.3-8,30.5-11.9c3.7-1.4,7.6-2.6,11.4-3.8
			c9.6-2.9,19.2-5.9,28.9-8.4c8.1-2,16.3-3.4,24.5-4.9c6.6-1.2,13.2-2.6,19.8-3.1c3.8-0.3,7.9,0.3,11.6,1.4c2.7,0.8,4.6,3.5,5.9,6.4
			c1.1,2.6,1.8,2.8,4.1,1.3c3.2-2,6.3-4.1,9.4-6.3c8.9-6.6,17.6-13.3,26.5-19.9c13.8-10.3,26.9-21.6,41.4-30.6
			c6.1-3.8,12.6-7.2,19.5-9.3c0.9-0.3,1.9-0.7,2.8-0.5c0.7,0.1,1.6,0.8,1.9,1.4c0.2,0.6,0,1.9-0.4,2.2
			C383,6.9,380.1,11.2,375.3,12.8c0-1.3-0.1-2.5-1.6-2.6c0,0,0,0,0,0c-0.9,0-1.9-0.3-2.5,0.1c-3.5,2-7.1,3.8-10.4,6.2
			c-8.8,6.4-17.4,13.1-26,19.7c-9.9,7.5-19.7,15.2-29.6,22.7c-6.7,5-13.5,9.8-20.4,14.5c-1.9,1.3-3.2,3-4.3,5.1
			c-2,4.1-3.8,8.4-6.4,12.2c-4.3,6.3-9.2,12.2-13.8,18.4c-0.4,0.5-0.5,1.2-0.8,1.9c0.6,0.1,1.3,0.3,1.9,0.2
			c5.1-0.8,9.1-3.7,13.1-6.8c1-0.8,2-1.6,3.1-2c0.7-0.2,1.8,0.3,2.4,0.9c0.3,0.3-0.1,1.5-0.5,2.2c-0.5,0.8-1.2,1.3-1.8,2
			c1,0.3,1.7,0,2.4-0.3c4.4-2,7.7-6,12.4-7.4c0.6-0.2,1.1-0.9,1.5-1.4c4.9-6,9.8-12.1,14.7-18.1c2.4-3,4.9-5.8,7.4-8.8
			c5.3-6.4,10.4-13.1,15.9-19.3c7.3-8.2,15-16.1,22.6-24c2.2-2.3,4.7-4.5,7.1-6.6c2.3-2.1,4.6-4.1,6.9-6.1l0,0
			c1.3,1.4,2.2,0,3.2-0.5C373.1,14.2,374.2,13.5,375.3,12.8z M288.7,113.1c0,0.1-0.1,0.2-0.1,0.3
			C288.7,113.4,288.7,113.3,288.7,113.1c0.1-0.1,0.1-0.2,0.2-0.3C288.9,112.9,288.8,113,288.7,113.1z M281.4,121.9
			c0-0.1,0.1-0.2,0.1-0.3C281.4,121.7,281.4,121.8,281.4,121.9c-0.1,0-0.1,0.2-0.2,0.3C281.2,122.1,281.3,122,281.4,121.9z
			 M327.5,119.3c-5.3,0-10.6-0.1-16,0.1c-2.3,0.1-4.6,0.4-6.9,1c-0.9,0.2-1.7,1.3-2.5,1.9c0.8,0.9,1.4,1.9,2.4,2.6
			c0.6,0.4,1.6,0.5,2.4,0.5c2.4-0.2,5-0.2,7.3-0.9C318.7,123,323.6,122.6,327.5,119.3c0.1-0.1,0.1-0.2,0.2-0.3
			C327.6,119.1,327.5,119.2,327.5,119.3z M164,137.7c1-0.4,1.7-0.6,2.2-1c7.3-6.1,14.3-12.5,20.2-20.2c6.3-8.2,11-17.2,15-26.8
			c1.2-2.8,2.3-5.6,3.9-8.1c1.2-1.7,2.9-2.9,2.7-5.5c-0.1-1.2,1.1-1.5,2.2-1.3c1.2,0.3,1.5,1.1,1.1,2.3c-1,2.4-2,4.8-3,7.1
			c-1.5,3.3-3.2,6.4-4.6,9.7c-2.8,6.6-5.7,13.2-10,19c-2.3,3.2-4.8,6.3-7.2,9.5c-0.3,0.4-0.2,1-0.3,1.5c0.4,0,0.8,0.1,1.1,0.1
			c2.3-0.5,4.5-1,6.8-1.5c0.4-0.1,1-0.2,1.1-0.5c1.1-3.3,4.3-3.8,6.6-5.3c6.8-4.4,13.6-8.8,20.5-12.8c12.4-7.2,25.6-12.7,37.7-20.4
			c5.4-3.5,10.8-6.8,16.2-10.4c2.7-1.8,3.2-4.1,2.1-7.1c-0.8-2-2.1-3.5-4.1-4c-3.7-0.8-7.6-2.1-11.3-1.6c-8.1,0.9-16.2,2.6-24.2,4.3
			c-8,1.7-16,3.9-24,5.6c-10.6,2.3-20.9,6-31.1,9.6c-8.6,3-17,6.4-25.5,9.7c-6.2,2.4-12.3,4.8-18.4,7.4c-7.9,3.3-15.7,6.8-23.6,10
			c-13.9,5.7-28,11-41.8,16.9c-10.7,4.5-21,9.9-31.7,14.4c-11.7,4.9-23.2,10.4-33.8,17.7c-0.9,0.6-1.8,1.3-2.5,2.2
			c-1.3,1.5-1.2,2.4,0.7,3.2c5,2.2,10.2,3.2,15.6,2.1c2.2-0.4,4.3-0.9,6.4-1.3c8.5-1.6,17-3.1,25.4-4.7c8.6-1.6,17.2-3.4,25.8-4.8
			c9.2-1.5,18.4-2.5,27.6-3.7c8.4-1.1,16.8-2.2,25.2-3.5c2.2-0.3,4.5-0.8,5.6-3.2c3.1-6.8,8.1-12.1,13.2-17.1
			c2.2-2.1,4.8-3.9,7.5-5.3c3-1.6,5-0.3,5.8,3.1c0.5,2,0.8,3.8,0.2,6C164.7,131.6,164.5,134.4,164,137.7z M204.3,120.7
			c0.1,0.4,0.3,0.8,0.4,1.2c1.7-0.2,3.5-0.4,5.2-0.6c2.1-0.3,4.3-0.7,6.4-1.1c4.4-0.8,8.9-1.5,13.3-2.3c4.7-0.9,9.3-2.2,14.1-3
			c5.5-0.9,10.2-3.4,13.9-7.7c4.5-5.2,8.8-10.7,12.9-16.3c2.5-3.3,4.5-7,5.7-11.8c-2.5,1.6-4.5,2.8-6.5,4
			c-6.7,4.2-13.3,8.6-20.3,12.3c-12.4,6.5-25.1,12.2-36.8,20.2C209.9,117.4,207.1,119,204.3,120.7z M286.6,150.6
			c-1.1-3.6-2.6-9.1-4.4-14.6c-0.7-2-1.7-2.1-3.6-1c-5.9,3.5-11,7.7-14.5,14.2c-4.6,8.5-8,17.4-9.9,27c-0.6,3.2,0,3.8,2.9,2.7
			c4.7-1.9,9.6-3.7,14-6.3c3.8-2.2,7.1-5.3,10.3-8.5C284.4,161.1,286.5,157.4,286.6,150.6z M237,125.3c-0.1-0.3-0.2-0.6-0.3-0.9
			c-2.8,0.5-5.6,1.1-8.4,1.3c-3.6,0.3-7.3,0.1-10.9,0.4c-1.9,0.1-3.8,0.3-5.6,1.9c-1.7,1.4-4.8,1.9-7,1.3c-2.7-0.7-5.2-0.4-7.4,0.5
			c-5.4,2.3-10.7,3.1-16.4,1.3c-0.9-0.3-2.3-0.2-3,0.4c-3.1,2.5-6.1,5.2-9.1,7.8c4.2,0.3,8.1,0.2,11.9-0.3c5.7-0.7,11.3-1.7,17-2.3
			c6.6-0.8,13.3-1.2,20-1.9c2.4-0.3,5-0.6,7.2-1.6C229.4,131.4,233.4,128.6,237,125.3z M175.9,153.4c1.1-0.2,2.4-0.4,3.5-0.7
			c10.1-2.7,19.8-6.6,29.2-11.5c0.4-0.2,0.7-0.4,1-0.6c-0.4-0.1-0.8-0.4-1.1-0.3c-5.6,0.6-11.1,1.1-16.7,1.8
			c-8.1,1.1-16.2,2.2-24.3,3.4c-0.7,0.1-1.8,0.5-2,1c-0.2,0.6,0.3,1.6,0.8,2.2C168.8,151.9,172.2,152.9,175.9,153.4z M144.1,143.7
			c4.7-0.7,9.1-1.3,13.6-2c1.7-0.3,2.6-1.5,2.9-3.2c0.7-4,1.5-7.9,2-11.9c0.2-1.1-0.1-2.7-0.8-3.5c-0.4-0.4-2,0.1-3,0.4
			c-0.6,0.2-1.2,0.8-1.7,1.2c-5.7,4.2-9.7,10-13.9,15.7c-0.5,0.7-0.7,1.7-1,2.5C142.8,143.3,143.5,143.5,144.1,143.7z M256.7,153.3
			c-1.1,0.9-1.5,1.1-1.8,1.4c-5.6,5.4-9.7,12-13.2,18.9c-2.2,4.4-0.1,7.7,4.8,7.6c1.6,0,2.4-0.4,2.8-2.3c0.7-3.9,1.7-7.8,2.9-11.7
			C253.4,162.8,254.9,158.6,256.7,153.3z M263.7,122.3c-4.8-1.2-8,1-11,3.6c-0.7,0.6-1,1.8-1.6,2.8c1,0.3,1.9,0.8,2.9,0.9
			c0.6,0.1,1.4-0.1,2-0.5C258.6,127.2,261.6,125.6,263.7,122.3z M296.9,120.6c-5.7-1.3-9.3,1.8-12.9,4.9c-0.2,0.2-0.4,0.9-0.2,1.2
			c0.1,0.2,0.8,0.4,1,0.3C288.7,125.1,292.9,123.7,296.9,120.6z M248.3,123.8c-4.1,0.1-7.8,2.6-13.5,8.6
			C240.7,131.8,243.7,127.3,248.3,123.8z M274.6,120.9c-2,1.2-3.9,2.3-5.9,3.5c-0.4,0.3-0.9,1.2-0.8,1.3c0.3,0.5,0.9,1,1.5,1.1
			C272.2,127.5,273.9,125.8,274.6,120.9z M148.8,148.8c-0.1-0.2-0.2-0.5-0.2-0.7c-2.4,0.3-4.8,0.6-7.2,0.9c-1.1,0.1-1.8,0.8-1.6,2
			c0.2,1.3,1.3,1.6,2.2,1.2C144.3,151.2,146.5,150,148.8,148.8z M304.9,111.8c-3.5-0.9-5.8,0.3-8.2,3
			C300,114.9,302.8,115,304.9,111.8z M346.5,102.7c0-0.5,0.1-0.9,0.1-1.4c-1.5-0.4-3.1-0.8-4.6-1.1c-0.2,0-0.7,0.4-0.8,0.7
			c-0.1,0.3,0.2,1,0.4,1C343.2,102.3,344.8,102.5,346.5,102.7z M294.2,126.1c0.1,0.2,0.3,0.5,0.4,0.7c0.4,0.1,0.8,0.2,1.2,0.2
			c1-0.1,2-0.4,3-0.6c-0.1-0.4-0.1-0.9-0.3-1.2c-1.1-1.4-2.2-0.3-3.3,0.2C294.8,125.7,294.5,125.9,294.2,126.1z M367.6,109.5
			c0.1-0.2,0.1-0.5,0.2-0.7c-1.2,0-2.4,0-3.6,0c-1.2,0-2.3,0-3.5,0.1c0,0.2,0,0.4,0.1,0.7C363,109.5,365.3,109.5,367.6,109.5z
			 M352.8,108.5c-0.2,0.1-0.5,0.2-0.7,0.3c0.2,0.3,0.4,0.6,0.6,0.7c0.1,0,0.4-0.3,0.6-0.4C353.1,108.9,352.9,108.7,352.8,108.5z
			 M295,105.6c0-0.1,0-0.3,0-0.4c-0.2,0-0.4,0.1-0.6,0.1c0,0,0,0.2,0,0.4C294.6,105.6,294.8,105.6,295,105.6z M330.1,113.7
			c-0.2-0.2-0.3-0.3-0.5-0.4c-0.1,0-0.2,0-0.3,0c0,0.2,0,0.3,0.1,0.5C329.6,113.8,329.8,113.8,330.1,113.7z M263.3,129.2
			c-0.2,0.2-0.4,0.3-0.5,0.5c0,0,0.1,0.2,0.2,0.3c0.2-0.2,0.4-0.3,0.6-0.5C263.5,129.5,263.3,129.3,263.3,129.2z M333.5,109.3
			l-0.3-0.2l0,0.3L333.5,109.3z M355.3,109.2l0.3,0.2l0-0.3L355.3,109.2z"/>
		<path d="M198.7,175.3c-2.3,0.1-4.7,0.6-6.6-1.2c-0.5-0.4-1.1-1.4-0.9-1.7c0.3-0.7,1.1-1.2,1.7-1.5c0.4-0.2,1.1,0.1,1.6,0.2
			c2.8,0.5,5.6,0.9,8.4,1.5c0.5,0.1,0.9,0.8,1.4,1.2c-0.4,0.4-0.7,1-1.1,1.1C201.7,175.1,200.2,175.2,198.7,175.3z"/>
		<path d="M220.4,183.8c-0.8-1.3-1.6-2-1.6-2.8c-0.1-1.4,0.7-2.8,2.1-2.6c0.8,0.1,2.1,1.6,2.1,2.2
			C222.8,181.6,221.6,182.4,220.4,183.8z"/>
		<path d="M94.8,247.7c-0.1,0.1-0.1,0.2-0.2,0.2c0-0.1-0.1-0.2-0.1-0.3c0-0.1,0.1-0.2,0.2-0.2C94.7,247.5,94.8,247.6,94.8,247.7z"/>
		<path d="M373.7,10.1c-0.1,0.1-0.1,0.2-0.2,0.3C373.5,10.3,373.6,10.2,373.7,10.1C373.6,10.1,373.7,10.1,373.7,10.1z"/>
		<path d="M368.7,15.3c0.1-0.1,0.1-0.2,0.2-0.3C368.8,15.2,368.8,15.3,368.7,15.3L368.7,15.3z"/>
	</g>
</g>
</svg>
